<mxfile host="app.diagrams.net" modified="2024-05-07T08:43:37.388Z" agent="Mozilla/5.0 (Macintosh; Intel Mac OS X 10.15; rv:125.0) Gecko/20100101 Firefox/125.0" etag="sVdWC1GKX_UN3c6wNypP" version="24.3.1" type="device">
  <diagram name="Page-1" id="KBAxPjuuJFaSbCX4vtvq">
    <mxGraphModel dx="942" dy="606" grid="1" gridSize="10" guides="1" tooltips="1" connect="1" arrows="1" fold="1" page="1" pageScale="1" pageWidth="850" pageHeight="1100" math="0" shadow="0">
      <root>
        <mxCell id="0" />
        <mxCell id="1" parent="0" />
      </root>
    </mxGraphModel>
  </diagram>
</mxfile>
